<svg width="198" height="50" viewBox="0 0 198 50" fill="none" xmlns="http://www.w3.org/2000/svg">
<path d="M50.9832 9.41568C50.9564 8.78153 50.8696 8.15134 50.724 7.53351C50.2292 5.42778 49.0433 3.54784 47.3551 2.19284C45.6947 0.821891 43.6194 0.0509205 41.4654 0.00481931H10.8387C10.0489 -0.0187791 9.25886 0.0443385 8.48283 0.193036C6.63831 0.596606 4.95172 1.5287 3.62968 2.87513C2.6673 3.80464 1.92655 4.93839 1.46226 6.19246C1.0684 7.11736 0.844932 8.10565 0.802608 9.10982H0.637695V41.0126H0.802608C0.836871 42.0002 1.05248 42.9731 1.4387 43.8829C2.3172 46.129 3.99505 47.9721 6.15049 49.0589C7.04424 49.5227 8.00666 49.8405 9.00113 50C9.03336 49.9814 9.06992 49.9716 9.10714 49.9716C9.14436 49.9716 9.18093 49.9814 9.21316 50H42.4313H42.5962H43.1852C44.9571 49.6234 46.5902 48.7648 47.904 47.5192C49.2179 46.2736 50.1612 44.6894 50.6298 42.9419C50.8863 41.9832 51.0052 40.993 50.9832 40.001V9.41568ZM39.7691 33.6486C39.731 33.747 39.731 33.8561 39.7691 33.9545C39.7112 34.3314 39.6165 34.7017 39.4864 35.0603L39.0624 36.6836L38.9446 37.0365C38.9446 37.3895 38.6619 37.6718 38.2378 37.7188H38.0729C38.0095 37.7575 37.9391 37.7833 37.8657 37.7947C37.7923 37.8062 37.7173 37.8031 37.6451 37.7856C37.5729 37.7681 37.5049 37.7366 37.4449 37.6929C37.3849 37.6491 37.3341 37.594 37.2954 37.5306C37.0791 37.2548 36.9391 36.9271 36.8895 36.5802C36.8399 36.2334 36.8824 35.8796 37.0127 35.5543L37.1541 35.225C37.1894 35.0701 37.1894 34.9093 37.1541 34.7544C37.0374 34.4192 37.0374 34.0544 37.1541 33.7192C37.1933 33.6203 37.2536 33.5311 37.3309 33.458C37.4083 33.3848 37.5007 33.3294 37.6017 33.2957L38.1907 33.0369C38.2719 33.0076 38.3456 32.9608 38.4067 32.8998C38.4678 32.8388 38.5147 32.7651 38.5441 32.684C38.6854 32.3782 38.921 32.1429 39.0859 31.837C39.2508 31.5312 39.2273 31.5312 39.4157 31.5312C39.6042 31.5312 39.6985 31.7194 39.7927 31.8841C39.8277 32.0151 39.8277 32.153 39.7927 32.2841V32.7546C39.8875 33.0465 39.8792 33.3621 39.7691 33.6486ZM40.4288 21.5557C40.3378 21.8671 40.2114 22.1671 40.0518 22.4497C39.7927 22.9438 39.4864 23.4143 39.2273 23.9084C38.9576 24.3618 38.5966 24.7543 38.1671 25.0612C37.3457 25.6658 36.602 26.3691 35.9526 27.1551C35.6209 27.5778 35.3365 28.0353 35.1045 28.5197C35.0693 28.5805 35.0508 28.6495 35.0508 28.7197C35.0508 28.7899 35.0693 28.8589 35.1045 28.9197C35.2163 29.2402 35.2952 29.5713 35.34 29.9078C35.3679 30.141 35.4762 30.3573 35.6463 30.5195C35.7128 30.5963 35.762 30.6864 35.7905 30.7839C35.8189 30.8813 35.826 30.9838 35.8112 31.0842C35.7641 31.5142 35.7641 31.9481 35.8112 32.3782C35.8301 32.7203 35.7368 33.0592 35.5455 33.3436C35.3542 33.6281 35.0753 33.8425 34.7511 33.9545C34.4004 34.0426 34.0969 34.2615 33.903 34.5662C33.903 34.6838 33.7145 34.7074 33.6202 34.7779C33.491 34.8436 33.3893 34.953 33.3332 35.0865C33.2771 35.2201 33.2703 35.3692 33.314 35.5073C33.314 35.672 33.314 35.8602 33.4318 36.0484C33.5257 36.4349 33.5257 36.8382 33.4318 37.2248C33.409 37.3157 33.3619 37.3988 33.2955 37.4651C33.2291 37.5314 33.1459 37.5784 33.0548 37.6012C32.905 37.6311 32.7615 37.6869 32.6308 37.7659C32.5562 37.7876 32.4916 37.8349 32.4485 37.8994C32.4054 37.964 32.3865 38.0417 32.3952 38.1188C32.3955 38.6827 32.2045 39.23 31.8533 39.6716C31.4232 40.2914 30.9509 40.881 30.4398 41.4361C30.2087 41.6993 29.9217 41.9077 29.5997 42.0461C29.2777 42.1845 28.9289 42.2494 28.5786 42.236C28.2575 42.203 27.9338 42.203 27.6127 42.236L26.9766 42.3537C26.8125 42.3765 26.646 42.3765 26.4819 42.3537C26.3736 42.3568 26.2657 42.3386 26.1645 42.3001C26.0632 42.2616 25.9706 42.2035 25.8918 42.1292C25.8131 42.0549 25.7497 41.9659 25.7054 41.8671C25.6612 41.7684 25.6368 41.6619 25.6338 41.5538C25.6223 41.4995 25.6223 41.4434 25.6338 41.3891C25.6669 41.0485 25.6015 40.7055 25.4453 40.4009C25.2162 39.8537 24.9151 39.3395 24.55 38.8717C24.3922 38.6825 24.2866 38.4554 24.2438 38.2129L24.0317 36.8248C23.8686 36.2718 23.6051 35.7534 23.2543 35.2955L22.9009 34.7309C22.8112 34.5714 22.755 34.3952 22.736 34.2133C22.6368 33.4068 22.776 32.589 23.1365 31.8606L23.4192 31.4371C23.4945 31.3172 23.5344 31.1786 23.5344 31.0371C23.5344 30.8956 23.4945 30.757 23.4192 30.6372C23.3283 30.363 23.2729 30.0784 23.2543 29.7902C23.1393 29.2885 22.9735 28.7997 22.7596 28.3315C22.583 28.0593 22.3777 27.8069 22.147 27.5786L21.8408 27.2963C21.6863 27.1525 21.5773 26.9668 21.527 26.762C21.4768 26.5572 21.4876 26.3422 21.5581 26.1435C21.5581 25.8611 21.6994 25.5788 21.7465 25.2965C21.7581 25.1477 21.7581 24.9983 21.7465 24.8495C21.7477 24.7236 21.7029 24.6016 21.6205 24.5063C21.5381 24.4111 21.4238 24.349 21.2989 24.3319H20.4272C20.3345 24.341 20.241 24.3237 20.1577 24.2821C20.0743 24.2405 20.0044 24.1762 19.956 24.0966C19.8924 24.0078 19.8372 23.9133 19.7911 23.8143C19.7267 23.6964 19.6237 23.6041 19.4994 23.5527C19.3751 23.5014 19.237 23.494 19.1079 23.532C18.8116 23.5503 18.5188 23.6056 18.2362 23.6967L17.4824 23.9319C17.1844 24.0562 16.8625 24.1125 16.54 24.0966H15.9275C15.5369 24.0565 15.1424 24.1048 14.7731 24.2378C14.6858 24.2831 14.5888 24.3068 14.4904 24.3068C14.3919 24.3068 14.295 24.2831 14.2077 24.2378C13.504 23.8869 12.8405 23.461 12.2287 22.9673C12.0329 22.8114 11.8791 22.6093 11.7811 22.3791C11.6727 22.1683 11.5294 21.9774 11.357 21.8145C11.0979 21.5557 10.8623 21.2969 10.6031 21.0616C10.4581 20.9779 10.334 20.8624 10.2401 20.7238C10.1463 20.5853 10.0851 20.4273 10.0613 20.2617C10.0601 20.1638 10.0385 20.0673 9.99798 19.9782C9.95742 19.889 9.89875 19.8093 9.82569 19.7441C9.80564 19.7264 9.78957 19.7047 9.77857 19.6804C9.76757 19.656 9.76188 19.6296 9.76188 19.6029C9.76188 19.5762 9.76757 19.5498 9.77857 19.5255C9.78957 19.5012 9.80564 19.4794 9.82569 19.4618L10.0613 19.2265C10.2869 18.7786 10.4229 18.2912 10.4618 17.7913C10.5084 17.4706 10.4593 17.1432 10.3204 16.8503C10.2503 16.7243 10.2135 16.5826 10.2135 16.4385C10.2135 16.2944 10.2503 16.1527 10.3204 16.0268C10.5893 15.5574 10.8255 15.07 11.0272 14.5681C11.0517 14.4096 11.1078 14.2576 11.1921 14.1211C11.3806 13.8623 11.5926 13.627 11.8046 13.3682C11.8614 13.2997 11.9245 13.2367 11.9931 13.18L12.8177 12.5918C12.9558 12.5151 13.0703 12.4023 13.1492 12.2656C13.228 12.1288 13.2682 11.9732 13.2653 11.8154C13.2423 11.6673 13.2423 11.5166 13.2653 11.3684C13.3838 10.9441 13.6408 10.5715 13.9956 10.3097L14.3961 9.98033C14.5516 9.85921 14.68 9.70694 14.7731 9.53331C14.7965 9.44071 14.8364 9.35306 14.8909 9.27451C14.9174 9.24447 14.95 9.22041 14.9866 9.20393C15.0231 9.18745 15.0628 9.17893 15.1029 9.17893C15.143 9.17893 15.1827 9.18745 15.2192 9.20393C15.2558 9.22041 15.2884 9.24447 15.3149 9.27451C15.6942 9.43325 16.1106 9.48217 16.5164 9.41568C16.7316 9.41544 16.9428 9.35864 17.129 9.25099C17.9217 8.80684 18.8117 8.56443 19.7205 8.54517H20.0503C20.2915 8.49822 20.5394 8.49822 20.7806 8.54517C21.1427 8.54913 21.5023 8.48529 21.8408 8.35696C21.9223 8.29587 22.0215 8.26285 22.1235 8.26285C22.2254 8.26285 22.3246 8.29587 22.4062 8.35696C22.4062 8.35696 22.7124 8.35696 22.7596 8.54517C22.8067 8.73339 22.7596 8.75692 22.6182 8.87455C22.593 8.95096 22.593 9.03341 22.6182 9.10982C22.6662 9.16986 22.7009 9.23942 22.72 9.31388C22.739 9.38835 22.7419 9.466 22.7285 9.54168C22.7152 9.61736 22.6858 9.68933 22.6424 9.75279C22.599 9.81626 22.5426 9.86976 22.4769 9.90975C22.4691 9.96437 22.4691 10.0198 22.4769 10.0744C22.4769 10.0744 22.4769 10.0744 22.4769 10.1921H22.6182C22.9093 10.3402 23.218 10.4509 23.537 10.5215L24.2673 10.6626C24.3606 10.676 24.4488 10.7134 24.5231 10.7711C24.5975 10.8289 24.6555 10.905 24.6914 10.992C24.7261 11.0687 24.7782 11.1364 24.8436 11.1895C24.9091 11.2426 24.986 11.2797 25.0683 11.2978L25.9636 11.6508C26.0415 11.6644 26.1212 11.6644 26.1992 11.6508C26.3405 11.6508 26.4112 11.6508 26.4819 11.4625C26.5047 11.3302 26.5047 11.1949 26.4819 11.0626C26.4863 10.9515 26.5249 10.8445 26.5923 10.7562C26.6597 10.6678 26.7528 10.6022 26.8588 10.5685H27.2593C27.3798 10.5394 27.5058 10.5414 27.6253 10.5743C27.7449 10.6072 27.854 10.67 27.9425 10.7567C28.0812 10.8812 28.2531 10.9629 28.4373 10.992L30.1335 11.4155C30.3981 11.5215 30.6935 11.5215 30.9581 11.4155C31.2331 11.3223 31.5312 11.3223 31.8062 11.4155H32.6779C32.9135 11.4155 33.0784 11.4155 33.1019 11.7449C33.1255 12.0742 33.1019 12.0272 33.1019 12.1448C33.2186 12.4881 33.2186 12.8603 33.1019 13.2035C33.0596 13.2697 33.0033 13.3259 32.937 13.3682C32.8192 13.3682 32.8192 13.5094 32.937 13.627C33.0548 13.7447 33.1255 14.1211 33.2433 14.3564C33.4519 14.6587 33.6109 14.9922 33.7145 15.3445C33.7651 15.4785 33.8457 15.5992 33.9501 15.6974C34.2815 16.028 34.468 16.4765 34.4684 16.9444C34.4652 17.075 34.4886 17.2049 34.5372 17.3263C34.5858 17.4476 34.6585 17.5578 34.7511 17.6502C35.0186 17.8958 35.2071 18.2151 35.2929 18.5677C35.3879 18.8448 35.5696 19.084 35.8112 19.25C36.1882 19.5559 36.518 19.9088 36.8714 20.2382C37.015 20.3788 37.1134 20.559 37.1541 20.7558C37.1541 21.1322 37.4132 21.2734 37.8137 21.2028C38.1359 21.212 38.4583 21.2042 38.7797 21.1792C39.1929 21.136 39.5976 21.0329 39.9812 20.8734H40.1225C40.1519 20.8626 40.1832 20.8584 40.2144 20.8611C40.2456 20.8638 40.2758 20.8734 40.3028 20.8891C40.3298 20.9049 40.353 20.9264 40.3707 20.9522C40.3884 20.9779 40.4002 21.0072 40.4052 21.0381C40.459 21.2055 40.4672 21.3841 40.4288 21.5557Z" fill="#264FAD"/>
<path d="M197.638 3.51089C197.466 3.09051 197.186 2.72309 196.826 2.44615C196.466 2.16921 196.039 1.99267 195.588 1.93457C195.562 1.94705 195.534 1.95354 195.506 1.95354C195.477 1.95354 195.449 1.94705 195.423 1.93457H195.141C195.115 1.94705 195.087 1.95354 195.058 1.95354C195.029 1.95354 195.001 1.94705 194.976 1.93457C194.545 1.99254 194.139 2.16825 193.802 2.44228C193.465 2.71631 193.211 3.078 193.067 3.48736L191.772 6.73411L189.91 11.2513C189.227 12.9217 188.544 14.5922 187.884 16.2626L185.528 21.7444L183.173 27.2968C183.173 27.2968 183.173 27.438 183.008 27.438C182.907 27.2484 182.821 27.0519 182.749 26.8498C181.806 24.4971 180.887 22.1444 179.969 19.9564C179.05 17.7683 178.296 15.3921 177.33 13.1335C177.189 12.7547 177.024 12.3853 176.835 12.0277C176.684 11.7096 176.456 11.4337 176.173 11.2244C175.889 11.0151 175.558 10.8789 175.21 10.8278C174.581 10.7455 173.944 10.8962 173.419 11.2513C173.202 11.3705 173.016 11.5399 172.877 11.7454C172.625 12.0822 172.469 12.4803 172.423 12.8982C172.377 13.3161 172.445 13.7386 172.618 14.1216C172.854 14.7569 173.113 15.3921 173.372 16.0273L176.058 22.6385C176.741 24.3559 177.448 26.0734 178.154 27.8144C179.05 30.0495 179.945 32.2611 180.864 34.4961C180.989 34.8483 181.163 35.181 181.382 35.4843C181.732 35.9323 182.233 36.2387 182.791 36.3468C183.35 36.4549 183.929 36.3575 184.421 36.0725C184.944 35.7544 185.349 35.2755 185.576 34.7079C186.565 32.2375 187.555 29.7907 188.568 27.3204C189.581 24.85 190.57 22.3091 191.583 19.8152L193.703 14.6392C194.222 13.2982 194.764 11.9807 195.305 10.6631L197.284 5.72244L197.638 4.82841V3.53442V3.51089Z" fill="#264FAD"/>
<path d="M105.857 30.8763C105.268 29.6059 104.702 28.3589 104.113 27.112C103.289 25.3474 102.464 23.5829 101.758 21.8184C101.051 20.0538 100.203 18.501 99.4017 16.8306L97.0458 11.5605C96.3626 10.0548 95.6558 8.54907 94.9491 7.04333L94.1009 5.23174C93.8418 4.66709 93.6062 4.07891 93.3235 3.53778C93.1696 3.15234 92.9164 2.81439 92.5896 2.55821C92.2627 2.30203 91.8738 2.13674 91.4623 2.0791H91.2974H90.732C90.7027 2.09361 90.6705 2.10116 90.6378 2.10116C90.6051 2.10116 90.5728 2.09361 90.5435 2.0791C90.3963 2.10737 90.2586 2.17209 90.143 2.26732H89.9781C89.5252 2.51842 89.1626 2.9052 88.9415 3.37309L87.8342 5.72581L84.7716 12.0781C83.8292 14.1015 82.9104 16.1248 81.9681 18.1246C81.0257 20.1244 80.1776 21.9595 79.3059 23.8888C79.1092 24.2699 78.9361 24.6628 78.7876 25.0651C78.6265 25.4675 78.5943 25.9099 78.6956 26.3313C78.7969 26.7527 79.0266 27.1323 79.353 27.4178C79.6045 27.6615 79.9041 27.8501 80.2327 27.9716C80.5612 28.0931 80.9116 28.1449 81.2613 28.1236C81.7971 28.1138 82.3098 27.904 82.6984 27.5355C82.9733 27.2551 83.1966 26.9286 83.358 26.5709L84.7716 23.4417L87.5751 17.3953L89.931 12.0311L90.2608 11.4194C90.52 11.09 90.5906 10.6665 90.8262 10.3136C90.8657 10.3244 90.9016 10.3453 90.9305 10.3741C90.9594 10.403 90.9803 10.4389 90.9911 10.4783L91.3681 11.2782L94.0302 16.9953L95.7265 20.6655L98.6949 27.0414C99.3781 28.5707 100.085 30.0529 100.792 31.5821L101.498 33.1349C101.805 33.7937 102.087 34.4524 102.417 35.0877C102.609 35.5439 102.94 35.9281 103.363 36.1858C103.786 36.4434 104.279 36.5614 104.773 36.5228C105.255 36.4951 105.717 36.3199 106.097 36.0211C106.476 35.7224 106.754 35.3143 106.893 34.8524C107.068 34.2157 107 33.5371 106.705 32.9467C106.493 32.2409 106.187 31.5586 105.857 30.8763Z" fill="#264FAD"/>
<path d="M164.514 24.5441C164.211 23.2697 163.558 22.1048 162.629 21.1797C161.871 20.4193 160.996 19.784 160.038 19.2976C159.219 18.8843 158.368 18.5381 157.493 18.2624C156.339 17.8389 155.138 17.533 153.96 17.2272C152.506 16.8894 151.075 16.4651 149.672 15.9567C149.002 15.7004 148.355 15.3855 147.74 15.0156C147.177 14.6856 146.713 14.2097 146.398 13.6382C146.082 13.0668 145.928 12.4209 145.95 11.7689C145.966 11.3553 146.029 10.9449 146.138 10.5455C146.378 9.57191 146.986 8.72882 147.834 8.19277C148.562 7.74033 149.357 7.40676 150.19 7.20463C151.197 6.93784 152.235 6.81117 153.276 6.82819C153.901 6.82819 154.5 6.58032 154.942 6.1391C155.384 5.69788 155.632 5.09946 155.632 4.47548C155.638 3.90458 155.436 3.35113 155.063 2.91826C154.69 2.4854 154.172 2.20267 153.606 2.12276H153.041C151.631 1.99641 150.211 2.07566 148.824 2.35804C146.802 2.85499 144.964 3.91575 143.523 5.41656C142.116 6.89072 141.28 8.8176 141.167 10.8513C141.092 11.8033 141.148 12.7611 141.332 13.6981C141.512 14.6881 141.888 15.6321 142.439 16.4743C143.17 17.5615 144.136 18.4703 145.266 19.1329C146.334 19.7781 147.472 20.2991 148.659 20.6857C150.284 21.2268 151.981 21.6268 153.63 22.0973C154.719 22.3633 155.789 22.7012 156.834 23.109C157.54 23.3882 158.205 23.7601 158.813 24.2147C159.314 24.6202 159.676 25.171 159.849 25.7911C160.06 26.699 159.967 27.651 159.584 28.501C159.201 29.351 158.549 30.052 157.729 30.4965C156.441 31.2013 155.004 31.5885 153.536 31.6258C152.932 31.6841 152.325 31.6841 151.722 31.6258C150.999 31.5399 150.283 31.4063 149.578 31.2258C148.497 30.9378 147.475 30.4598 146.562 29.8142C146.13 29.4994 145.727 29.145 145.361 28.7555C145.102 28.4594 144.739 28.2741 144.348 28.2379C143.794 28.127 143.219 28.1844 142.698 28.4026C142.391 28.5227 142.116 28.7129 141.895 28.958C141.674 29.203 141.514 29.4962 141.426 29.8142C141.304 30.2249 141.297 30.6611 141.405 31.0757C141.513 31.4903 141.732 31.8676 142.039 32.1669C142.95 33.114 144.008 33.9084 145.172 34.5196C146.512 35.2217 147.949 35.7212 149.436 36.0018C150.489 36.2289 151.563 36.3393 152.64 36.3312H152.829C153.839 36.3384 154.848 36.2597 155.844 36.096C157.451 35.7873 158.99 35.198 160.391 34.3549C161.641 33.5837 162.682 32.5171 163.421 31.2493C164.161 29.9814 164.577 28.5513 164.632 27.0851V26.1675C164.647 25.6238 164.608 25.0799 164.514 24.5441Z" fill="#264FAD"/>
<path d="M130.871 22.1676C132.01 21.4583 132.988 20.521 133.746 19.4149C134.58 18.1159 135.104 16.6428 135.277 15.1094C135.36 14.2566 135.36 13.3978 135.277 12.545C135.255 11.7537 135.161 10.9661 134.994 10.1923C134.712 8.98147 134.209 7.83299 133.51 6.80434C132.775 5.73995 131.838 4.82893 130.754 4.12225C128.69 2.64206 126.226 1.82171 123.686 1.76953C123.309 1.76953 122.909 1.76953 122.532 1.76953C121.599 1.85789 120.676 2.03114 119.775 2.28713C117.489 2.90249 115.453 4.21917 113.956 6.05147C113.382 6.7735 112.899 7.56374 112.519 8.40419C111.908 9.89498 111.627 11.5001 111.695 13.1096C111.7 13.4825 111.794 13.8488 111.968 14.1784C112.143 14.5079 112.394 14.7912 112.7 15.0049C113.006 15.2186 113.359 15.3566 113.729 15.4075C114.099 15.4584 114.475 15.4207 114.828 15.2976C115.206 15.1814 115.549 14.9716 115.825 14.6879C116.101 14.4042 116.301 14.0555 116.406 13.6743C116.441 13.3379 116.441 12.9989 116.406 12.6626C116.415 11.692 116.641 10.7357 117.066 9.86287C117.479 9.07878 118.088 8.41431 118.833 7.93364C119.354 7.59321 119.907 7.3018 120.482 7.06314C121.356 6.7323 122.28 6.54941 123.215 6.52202C123.857 6.52259 124.497 6.5936 125.123 6.73376C126.181 6.97503 127.187 7.40545 128.092 8.00423C128.827 8.51607 129.413 9.21451 129.788 10.0276C130.183 10.8929 130.4 11.8292 130.424 12.7802C130.512 13.7109 130.44 14.6498 130.212 15.5564C129.965 16.5138 129.379 17.3495 128.563 17.9092C127.414 18.6574 126.159 19.2285 124.84 19.6031C123.733 19.956 122.485 20.2619 121.519 20.6383C120.132 21.0725 118.797 21.6563 117.537 22.3793C115.948 23.3007 114.603 24.589 113.615 26.1363C112.627 27.6837 112.025 29.445 111.859 31.2726C111.859 31.6961 111.859 32.1196 111.742 32.5666C111.695 33.091 111.695 33.6185 111.742 34.1429C111.742 34.7669 111.99 35.3653 112.432 35.8065C112.873 36.2477 113.473 36.4956 114.098 36.4956C114.551 36.4947 114.994 36.3632 115.374 36.117C115.755 35.8708 116.056 35.5203 116.241 35.1075C116.329 34.8876 116.392 34.6588 116.43 34.4252C116.453 33.9785 116.453 33.5309 116.43 33.0842C116.444 32.1996 116.579 31.321 116.83 30.4727C117.116 29.4492 117.65 28.5119 118.385 27.7435C118.98 27.1439 119.673 26.6506 120.435 26.2848C121.581 25.7329 122.771 25.2765 123.992 24.9202C125.123 24.5438 126.348 24.238 127.408 23.838C128.618 23.4039 129.779 22.844 130.871 22.1676Z" fill="#264FAD"/>
<path d="M162.017 10.098C162.641 10.098 163.241 9.85013 163.682 9.40891C164.124 8.96769 164.372 8.36927 164.372 7.74529C164.372 7.12131 164.124 6.52289 163.682 6.08167C163.241 5.64045 162.641 5.39258 162.017 5.39258C161.392 5.39258 160.792 5.64045 160.351 6.08167C159.909 6.52289 159.661 7.12131 159.661 7.74529C159.661 8.36927 159.909 8.96769 160.351 9.40891C160.792 9.85013 161.392 10.098 162.017 10.098Z" fill="#264FAD"/>
<path d="M171.181 6.71031C171.806 6.71031 172.405 6.46244 172.847 6.02122C173.289 5.58 173.537 4.98158 173.537 4.3576C173.537 3.89228 173.399 3.4374 173.14 3.0505C172.881 2.6636 172.513 2.36204 172.083 2.18397C171.652 2.0059 171.178 1.95931 170.721 2.05009C170.264 2.14087 169.845 2.36494 169.515 2.69398C169.186 3.02301 168.961 3.44222 168.87 3.89861C168.78 4.35499 168.826 4.82804 169.005 5.25794C169.183 5.68785 169.485 6.05529 169.872 6.31381C170.26 6.57233 170.715 6.71031 171.181 6.71031Z" fill="#264FAD"/>
<path d="M133.016 31.5781C132.391 31.5781 131.792 31.826 131.35 32.2672C130.908 32.7084 130.66 33.3069 130.66 33.9308C130.66 34.5548 130.908 35.1532 131.35 35.5945C131.792 36.0357 132.391 36.2836 133.016 36.2836C133.64 36.2836 134.24 36.0357 134.681 35.5945C135.123 35.1532 135.371 34.5548 135.371 33.9308C135.371 33.3069 135.123 32.7084 134.681 32.2672C134.24 31.826 133.64 31.5781 133.016 31.5781Z" fill="#264FAD"/>
<path d="M77.0624 36.3314C77.6873 36.3314 78.2865 36.0835 78.7283 35.6423C79.1701 35.2011 79.4183 34.6027 79.4183 33.9787C79.4183 33.3547 79.1701 32.7563 78.7283 32.3151C78.2865 31.8739 77.6873 31.626 77.0624 31.626C76.4376 31.626 75.8384 31.8739 75.3966 32.3151C74.9548 32.7563 74.7065 33.3547 74.7065 33.9787C74.7065 34.6027 74.9548 35.2011 75.3966 35.6423C75.8384 36.0835 76.4376 36.3314 77.0624 36.3314Z" fill="#264FAD"/>
<path d="M119.328 41.6726H118.715C117.953 41.8229 117.269 42.2391 116.785 42.8469C116.302 43.4546 116.051 44.2142 116.077 44.9899C116.062 45.4238 116.136 45.8561 116.294 46.2606C116.452 46.6651 116.69 47.0332 116.995 47.3426C117.291 47.6708 117.655 47.9296 118.062 48.1005C118.47 48.2713 118.91 48.35 119.351 48.3308C119.801 48.3473 120.249 48.258 120.658 48.07C121.068 47.8821 121.427 47.6006 121.707 47.2485C122.175 46.7213 122.465 46.0608 122.537 45.3601C122.609 44.6595 122.459 43.9539 122.108 43.343C121.85 42.8307 121.452 42.402 120.96 42.1063C120.468 41.8107 119.902 41.6603 119.328 41.6726ZM119.846 47.5073H119.681H119.163C118.708 47.4978 118.266 47.3573 117.89 47.1026C117.514 46.848 117.22 46.4901 117.042 46.0721C116.839 45.6707 116.743 45.2238 116.764 44.7745C116.785 44.3252 116.921 43.8888 117.16 43.5077C117.366 43.1213 117.676 42.7998 118.055 42.5796C118.433 42.3593 118.866 42.2489 119.304 42.2607C119.646 42.2727 119.981 42.3589 120.286 42.5133C120.591 42.6677 120.859 42.8866 121.071 43.1548C121.355 43.491 121.552 43.8919 121.645 44.3221C121.737 44.7524 121.722 45.1987 121.601 45.6218C121.48 46.0449 121.257 46.4318 120.951 46.7483C120.645 47.0648 120.265 47.3012 119.846 47.4367V47.5073Z" fill="#264FAD"/>
<path d="M151.91 41.6706C151.684 41.6345 151.453 41.6345 151.227 41.6706C150.583 41.8241 150.005 42.1785 149.578 42.6823C149.291 43.0001 149.07 43.3719 148.928 43.7758C148.787 44.1798 148.727 44.6078 148.753 45.035C148.793 45.767 149.066 46.4673 149.53 47.0348C149.909 47.5014 150.418 47.8461 150.992 48.026C151.566 48.2059 152.18 48.213 152.758 48.0465C153.451 47.8405 154.051 47.3996 154.454 46.7995C154.867 46.2077 155.074 45.4968 155.043 44.7762C155.025 44.0883 154.795 43.4227 154.384 42.8705C154.095 42.4904 153.72 42.1836 153.29 41.9751C152.861 41.7667 152.388 41.6623 151.91 41.6706ZM153.583 46.8466C153.307 47.1348 152.963 47.3485 152.582 47.4675C152.201 47.5865 151.796 47.607 151.406 47.5271C151.015 47.4471 150.651 47.2693 150.347 47.0104C150.044 46.7515 149.812 46.4198 149.672 46.0467C149.391 45.42 149.361 44.7096 149.589 44.0618C149.817 43.414 150.285 42.8781 150.897 42.5646C151.271 42.3744 151.692 42.2954 152.109 42.3371C152.527 42.3788 152.924 42.5395 153.253 42.7999C153.563 43.029 153.819 43.3221 154.006 43.6591C154.192 43.9962 154.304 44.3694 154.333 44.7533C154.362 45.1372 154.308 45.5229 154.174 45.8841C154.041 46.2453 153.831 46.5736 153.559 46.8466H153.583Z" fill="#264FAD"/>
<path d="M89.3841 45.9297C89.1249 45.4827 89.1721 45.4592 89.549 45.2945C89.9034 45.0946 90.1813 44.7828 90.339 44.408C90.4968 44.0333 90.5255 43.6169 90.4207 43.2241C90.3308 42.8276 90.1101 42.4728 89.7938 42.2167C89.4776 41.9607 89.0844 41.8183 88.6773 41.8125C88.3004 41.8125 87.8999 41.8125 87.5229 41.8125H86.769C86.5099 41.8125 86.4863 41.8125 86.4863 42.1184V47.7649C86.4863 48.1648 86.4863 48.1648 86.9104 48.1648C87.3345 48.1648 87.1931 48.1648 87.1931 47.906V46.3062C87.1931 45.4122 87.0753 45.5533 87.9941 45.5533C88.0808 45.5408 88.1693 45.557 88.2459 45.5995C88.3225 45.642 88.383 45.7084 88.4182 45.7886L88.8658 46.5415L89.6668 47.9531C89.6668 47.9531 89.6668 48.1413 89.9024 48.1648C90.0979 48.1894 90.2958 48.1894 90.4914 48.1648C90.5204 48.0891 90.5204 48.0053 90.4914 47.9296L89.3841 45.9297ZM88.7951 44.8475H87.4522C87.2638 44.8475 87.2167 44.8475 87.2167 44.6122V43.6241V42.6124C87.2167 42.4713 87.2167 42.4007 87.4287 42.4007H88.7716C88.9935 42.4095 89.2079 42.4833 89.388 42.613C89.5682 42.7427 89.7061 42.9225 89.7846 43.13C89.9081 43.4215 89.9159 43.749 89.8066 44.0461C89.6972 44.3432 89.4788 44.5877 89.1956 44.7299C89.0706 44.7936 88.9348 44.8334 88.7951 44.8475Z" fill="#264FAD"/>
<path d="M130.212 45.2004C129.774 44.9275 129.285 44.7436 128.775 44.6593C128.469 44.6593 128.163 44.5416 127.88 44.4475C127.708 44.4057 127.542 44.3425 127.385 44.2593C127.28 44.1938 127.189 44.1064 127.12 44.0031C127.051 43.8998 127.005 43.783 126.985 43.6604C126.965 43.5379 126.971 43.4124 127.004 43.2925C127.036 43.1726 127.094 43.0611 127.173 42.9653C127.343 42.7578 127.561 42.596 127.809 42.4948C128.19 42.412 128.584 42.412 128.964 42.4948C129.196 42.5049 129.424 42.5648 129.631 42.6703C129.838 42.7759 130.021 42.9246 130.165 43.1065C130.354 43.3418 130.354 43.3418 130.613 43.2477C130.642 43.2447 130.669 43.2343 130.692 43.2175C130.716 43.2008 130.734 43.1782 130.746 43.152C130.758 43.1258 130.763 43.097 130.76 43.0684C130.758 43.0398 130.747 43.0123 130.731 42.9889C130.589 42.6914 130.359 42.4449 130.071 42.283C129.581 41.9835 129.02 41.821 128.446 41.8125C128.082 41.8192 127.723 41.891 127.385 42.0242C127.077 42.1458 126.802 42.3394 126.584 42.5889C126.442 42.7665 126.34 42.9729 126.285 43.1937C126.23 43.4145 126.223 43.6446 126.266 43.8681C126.309 44.0917 126.399 44.3034 126.531 44.4887C126.663 44.674 126.834 44.8285 127.032 44.9416L127.362 45.0828C127.7 45.2016 128.047 45.296 128.398 45.3651C128.721 45.4185 129.037 45.5052 129.341 45.6239C129.501 45.6785 129.652 45.7579 129.788 45.8592C129.938 45.9751 130.043 46.139 130.086 46.3232C130.129 46.5075 130.107 46.7008 130.024 46.8708C129.882 47.1674 129.627 47.3957 129.317 47.5061C128.888 47.681 128.413 47.7137 127.964 47.5993C127.514 47.485 127.113 47.2296 126.82 46.8708C126.794 46.8477 126.761 46.8349 126.726 46.8349C126.691 46.8349 126.657 46.8477 126.632 46.8708L126.325 46.9885C126.325 46.9885 126.184 47.1061 126.325 47.2002C126.427 47.428 126.58 47.6293 126.773 47.7884C127.165 48.1013 127.633 48.3053 128.129 48.3796C128.626 48.454 129.133 48.3961 129.6 48.2119C129.895 48.0984 130.167 47.9308 130.401 47.7178C130.595 47.5625 130.749 47.3622 130.848 47.1342C130.948 46.9062 130.99 46.6574 130.972 46.4095C130.953 46.1615 130.874 45.9218 130.742 45.7111C130.61 45.5004 130.428 45.3251 130.212 45.2004Z" fill="#264FAD"/>
<path d="M105.027 43.8127L104.297 42.0247C104.275 41.9481 104.229 41.8809 104.165 41.8339C104.101 41.787 104.023 41.763 103.943 41.7659C103.331 41.7659 103.401 41.7659 103.166 42.307V42.4952C102.6 44.095 102.011 45.6949 101.422 47.2006C101.349 47.3852 101.286 47.5737 101.234 47.7653C101.234 47.9535 101.234 48.0005 101.375 48.0241H101.658C101.716 48.0263 101.773 48.0089 101.82 47.9748C101.867 47.9406 101.901 47.8917 101.917 47.8359L102.27 46.9183C102.282 46.8476 102.32 46.7839 102.377 46.7403C102.434 46.6966 102.505 46.6761 102.577 46.683C103.401 46.683 104.249 46.683 105.098 46.683C105.181 46.6762 105.265 46.7016 105.33 46.7541C105.396 46.8066 105.439 46.8822 105.451 46.9654L105.663 47.5771L105.804 47.8829C105.815 47.9181 105.837 47.9487 105.867 47.97C105.896 47.9913 105.933 48.0021 105.969 48.0005C106.147 48.0485 106.334 48.0485 106.511 48.0005C106.544 47.8932 106.544 47.7785 106.511 47.6712C105.993 46.4478 105.522 45.1302 105.027 43.8127ZM102.671 46.1654C102.671 46.1654 102.671 46.1654 102.671 46.0007C103.071 44.942 103.448 43.9068 103.849 42.8011C104.032 43.1742 104.189 43.5594 104.32 43.9539C104.438 44.3068 104.579 44.6832 104.721 45.0361C104.871 45.4119 104.997 45.797 105.098 46.189C104.287 46.2094 103.476 46.1701 102.671 46.0713V46.1654Z" fill="#264FAD"/>
<path d="M80.2674 47.5522L78.3827 42.141C78.3916 42.0707 78.3916 41.9996 78.3827 41.9292C78.3705 41.8931 78.3488 41.8608 78.3198 41.836C78.2907 41.8111 78.2555 41.7946 78.2178 41.7881C78.0058 41.7881 77.7702 41.7881 77.5817 41.7881C77.3933 41.7881 77.4168 42.0704 77.3461 42.2351C76.71 43.9761 76.0975 45.6936 75.4614 47.4111C75.4614 47.5993 75.3436 47.7875 75.2729 47.9992C75.4441 48.0323 75.6201 48.0323 75.7912 47.9992C75.8383 47.9938 75.8829 47.9755 75.9203 47.9465C75.9577 47.9174 75.9864 47.8787 76.0033 47.8346V47.6228L76.2153 47.0582C76.3567 46.6582 76.3567 46.6582 76.7336 46.6582H79.0895C79.1467 46.6597 79.2021 46.6785 79.2484 46.7121C79.2946 46.7457 79.3296 46.7925 79.3486 46.8464C79.3486 46.9641 79.3486 47.1052 79.4664 47.2229C79.5842 47.3405 79.6314 47.6463 79.702 47.8346C79.7189 47.8787 79.7476 47.9174 79.785 47.9465C79.8224 47.9755 79.867 47.9938 79.9141 47.9992C80.3617 47.9992 80.503 47.9993 80.291 47.5287C80.291 47.6228 80.2674 47.5758 80.2674 47.5522ZM78.8539 46.1171H76.71C76.5216 46.1171 76.498 46.1171 76.5451 45.9053C76.5978 45.7293 76.6607 45.5564 76.7336 45.3877C77.0399 44.4937 77.3697 43.6232 77.7231 42.6586C77.8811 42.9056 78.0003 43.1754 78.0765 43.4585L78.901 45.8112V46.0465C78.8947 46.0751 78.8779 46.1002 78.8539 46.1171Z" fill="#264FAD"/>
<path d="M175.681 47.578C175.115 46.0252 174.55 44.496 174.008 42.8726L173.655 41.908C173.649 41.8768 173.637 41.8471 173.62 41.8206C173.603 41.7941 173.58 41.7713 173.554 41.7538C173.527 41.7362 173.498 41.7241 173.466 41.7183C173.435 41.7124 173.403 41.7129 173.372 41.7198H173.184C173.184 41.7198 173.184 41.7198 173.042 41.7198C173 41.7095 172.957 41.7082 172.914 41.7159C172.872 41.7237 172.831 41.7403 172.796 41.7648C172.76 41.7892 172.73 41.8209 172.708 41.8577C172.685 41.8946 172.671 41.9358 172.665 41.9786C172.665 41.9786 172.665 41.9786 172.665 42.1197L170.663 47.6251C170.498 48.0486 170.521 48.0721 170.946 48.0721C171.37 48.0721 171.252 48.0721 171.299 47.8368C171.346 47.6016 171.511 47.2957 171.605 47.0134C171.617 46.9302 171.66 46.8546 171.726 46.8021C171.791 46.7497 171.875 46.7242 171.959 46.7311C172.775 46.7311 173.561 46.7311 174.314 46.7311C174.401 46.7215 174.488 46.742 174.561 46.7891C174.634 46.8363 174.688 46.9072 174.715 46.9899C174.715 47.2957 174.927 47.578 175.021 47.8604C175.037 47.9225 175.074 47.9773 175.125 48.0158C175.177 48.0543 175.24 48.0741 175.304 48.0721H175.492C175.728 48.0721 175.775 48.0721 175.704 47.7898C175.634 47.5074 175.704 47.6721 175.681 47.578ZM174.338 46.1429H171.982C171.982 46.1429 171.982 46.0252 171.982 45.9782L173.113 42.8726C173.56 43.8942 173.954 44.9387 174.291 46.0017C174.32 46.0431 174.336 46.0922 174.338 46.1429Z" fill="#264FAD"/>
<path d="M187.978 42.4705H190.829C190.877 42.3092 190.877 42.1376 190.829 41.9764H190.546C189.541 41.9764 188.528 41.9764 187.507 41.9764C187.445 41.9649 187.381 41.9649 187.318 41.9764C187.177 41.9764 187.13 41.9764 187.106 42.1646V48.0464C187.106 48.2581 187.106 48.2817 187.389 48.3052H190.805C190.843 48.3052 190.879 48.2903 190.905 48.2639C190.932 48.2374 190.947 48.2015 190.947 48.164V47.8347C190.951 47.8152 190.951 47.7949 190.945 47.7757C190.94 47.7565 190.929 47.739 190.915 47.7249C190.901 47.7108 190.883 47.7005 190.864 47.695C190.845 47.6895 190.825 47.689 190.805 47.6935H188.002C187.79 47.6935 187.766 47.6935 187.766 47.4347V45.6231C187.766 45.3643 187.766 45.3408 188.072 45.3173H190.075C190.405 45.3173 190.452 45.3173 190.452 44.9408C190.452 44.5644 190.452 44.635 190.146 44.635H189.816C189.25 44.635 188.661 44.635 188.096 44.635C187.531 44.635 187.766 44.635 187.766 44.3291V42.941C187.704 42.9129 187.655 42.8612 187.631 42.7972C187.606 42.7333 187.608 42.6623 187.637 42.5999C187.665 42.5375 187.716 42.4888 187.78 42.4645C187.845 42.4403 187.916 42.4424 187.978 42.4705Z" fill="#264FAD"/>
<path d="M96.6873 42.519C97.0867 42.3421 97.531 42.2928 97.9595 42.3778C98.4523 42.4787 98.9035 42.7245 99.2552 43.0836C99.4673 43.2953 99.5144 43.2953 99.7735 43.0836C99.9385 43.0836 99.962 42.8954 99.7735 42.7778C99.4294 42.3448 98.9726 42.0149 98.4532 41.824C97.9337 41.6331 97.3717 41.5886 96.8287 41.6955C96.4361 41.7621 96.0617 41.9094 95.7291 42.1281C95.3966 42.3468 95.1131 42.6321 94.8968 42.966C94.6062 43.3642 94.4088 43.8225 94.3191 44.307C94.2294 44.7916 94.2497 45.29 94.3785 45.7657C94.4874 46.2534 94.7108 46.7082 95.0303 47.0927C95.3498 47.4772 95.7563 47.7804 96.2161 47.9772C96.6494 48.1817 97.1282 48.2709 97.6061 48.236C98.3606 48.1813 99.067 47.8454 99.5851 47.295C99.9385 46.9185 99.9385 46.895 99.5851 46.6597C99.5443 46.6292 99.4947 46.6127 99.4437 46.6127C99.3927 46.6127 99.3431 46.6292 99.3024 46.6597C99.2337 46.7164 99.1706 46.7794 99.1139 46.8479C98.7058 47.2264 98.1766 47.4483 97.6202 47.4741C97.0639 47.5 96.5163 47.3281 96.0748 46.9891C95.7423 46.7597 95.4745 46.4488 95.2971 46.0862C95.1197 45.7237 95.0386 45.3216 95.0618 44.9187C95.0589 44.4017 95.2126 43.8959 95.5027 43.4676C95.7928 43.0394 96.2057 42.7087 96.6873 42.519Z" fill="#264FAD"/>
<path d="M146.938 46.7054L146.773 46.8701C146.55 47.0981 146.282 47.2782 145.986 47.3996C145.691 47.5209 145.373 47.5809 145.054 47.5759C144.694 47.5659 144.341 47.4738 144.023 47.3066C143.704 47.1394 143.428 46.9015 143.216 46.6113C142.881 46.1494 142.7 45.5936 142.7 45.0232C142.7 44.4528 142.881 43.8969 143.216 43.4351C143.528 42.9436 144.011 42.5849 144.573 42.4285C145.134 42.2721 145.733 42.3289 146.255 42.5881C146.528 42.7257 146.775 42.9087 146.985 43.1293C147.127 43.2939 147.174 43.2704 147.362 43.1293H147.574C147.574 43.1293 147.692 42.9881 147.574 42.894C147.295 42.534 146.939 42.2413 146.531 42.0377C146.123 41.834 145.674 41.7247 145.219 41.7176C144.771 41.7019 144.326 41.7892 143.917 41.9728C143.509 42.1564 143.148 42.4313 142.863 42.7763C142.565 43.1213 142.339 43.5224 142.198 43.956C142.058 44.3896 142.006 44.8468 142.046 45.3008C142.085 45.7547 142.215 46.1962 142.428 46.599C142.642 47.0019 142.933 47.3581 143.287 47.6465C143.85 48.1053 144.563 48.34 145.289 48.3052C145.934 48.28 146.553 48.0491 147.056 47.6465C147.292 47.466 147.492 47.2424 147.645 46.9877C147.513 46.8755 147.361 46.7879 147.197 46.7289C147.184 46.7078 147.166 46.6901 147.144 46.6771C147.123 46.6641 147.099 46.6562 147.074 46.6539C147.049 46.6516 147.024 46.6551 147 46.664C146.977 46.6729 146.955 46.6871 146.938 46.7054Z" fill="#264FAD"/>
<path d="M169.885 42.1182H169.697C169.651 42.1189 169.607 42.1326 169.57 42.1576C169.532 42.1827 169.503 42.218 169.485 42.2593C169.471 42.3451 169.471 42.4324 169.485 42.5181C169.061 43.6474 168.66 44.7532 168.26 45.8825C168.071 46.4001 167.859 46.9177 167.671 47.4824C167.549 47.3699 167.466 47.2215 167.435 47.0589C166.987 45.8355 166.54 44.7061 166.116 43.4122C165.974 43.0592 165.857 42.6828 165.715 42.3299C165.71 42.2829 165.691 42.2384 165.662 42.201C165.633 42.1637 165.595 42.135 165.55 42.1182H165.079V42.2593" stroke="#264FAD" stroke-width="0.3"/>
<path d="M85.4496 41.9528C85.4438 41.907 85.4215 41.865 85.3867 41.8347C85.352 41.8043 85.3073 41.7877 85.2611 41.7881H81.9158C81.7508 41.7881 81.7273 41.7881 81.7037 42.0234V47.5993C81.692 47.7245 81.692 47.8505 81.7037 47.9757C81.6884 47.9961 81.6802 48.0209 81.6802 48.0463C81.6802 48.0718 81.6884 48.0965 81.7037 48.1169C81.8493 48.1637 82.0058 48.1637 82.1513 48.1169C82.1846 48.1113 82.2148 48.094 82.2364 48.0681C82.258 48.0422 82.2696 48.0094 82.2691 47.9757V45.623C82.2575 45.5057 82.2575 45.3875 82.2691 45.2701C82.2691 45.1289 82.2692 45.0819 82.4812 45.0584H84.4837C84.8606 45.0584 84.9077 45.0584 84.8842 44.6349C84.8606 44.2114 84.8842 44.3761 84.6015 44.3761C84.3188 44.3761 83.612 44.3761 83.1173 44.3761H82.5047C82.3163 44.3761 82.2691 44.3761 82.2691 44.1173C82.2691 43.8585 82.2691 43.3879 82.2691 43.0115C82.2575 42.902 82.2575 42.7916 82.2691 42.6821C82.2691 42.541 82.2691 42.4939 82.4576 42.4704H84.8135C85.3083 42.4704 85.2611 42.4704 85.2611 41.9998L85.4496 41.9528Z" fill="#264FAD"/>
<path d="M196.484 41.7882C196.422 41.7776 196.358 41.7881 196.302 41.8179C196.247 41.8478 196.203 41.8953 196.178 41.9529C196.11 42.0214 196.054 42.1009 196.013 42.1881L194.788 44.2115C194.788 44.2115 194.788 44.3997 194.552 44.4232L193.751 43.1057L193.091 42.047C193.091 42.047 192.974 41.8823 192.879 41.8823C192.785 41.8823 192.479 41.8823 192.29 41.8823C192.102 41.8823 192.432 42.1881 192.502 42.3528V42.4705L194.128 45.082C194.173 45.2196 194.173 45.3679 194.128 45.5055V47.8582C194.128 48.0229 194.128 48.0699 194.364 48.0935C194.599 48.117 194.835 48.0935 194.835 47.6229V45.5761C194.83 45.3457 194.887 45.1183 195 44.9173L196.767 42.3528C196.767 42.2117 197.026 42.0705 196.955 41.9529C196.884 41.8352 196.649 41.8117 196.484 41.7882Z" fill="#264FAD"/>
<path d="M114.898 41.7656C113.532 41.7656 112.166 41.7656 110.799 41.7656C110.375 41.7656 110.257 41.9303 110.375 42.3538C110.493 42.7773 110.375 42.3538 110.493 42.4714H112.307C112.425 42.4714 112.495 42.4714 112.495 42.6597V47.5768C112.483 47.702 112.483 47.8281 112.495 47.9533V48.0709C112.577 48.1058 112.666 48.1239 112.755 48.1239C112.844 48.1239 112.932 48.1058 113.014 48.0709V42.8949C113.014 42.6126 113.014 42.5655 113.344 42.5655H114.922C115.134 42.5655 115.181 42.5655 115.181 42.3303C115.181 42.095 115.323 41.7656 114.898 41.7656Z" fill="#264FAD"/>
<path d="M185.481 47.4593H183.337C182.772 47.4593 182.795 47.4593 182.795 46.9181V42.2127C182.795 41.7657 182.795 41.7657 182.324 41.7892C181.853 41.8127 182.136 41.7892 182.112 41.9774V47.9533C182.112 47.9533 182.112 48.0945 182.301 48.118H185.34C185.67 48.118 185.693 48.118 185.693 47.7416C185.693 47.5063 185.646 47.4828 185.481 47.4593Z" fill="#264FAD"/>
<path d="M180.581 47.4827H178.39C177.824 47.4827 177.848 47.4827 177.848 46.9651V42.048C177.848 42.048 177.848 41.8362 177.848 41.8127C177.762 41.7771 177.67 41.7588 177.577 41.7588C177.484 41.7588 177.392 41.7771 177.306 41.8127V47.8357C177.302 47.8582 177.303 47.8814 177.31 47.9033C177.317 47.9253 177.329 47.9452 177.345 47.9614C177.361 47.9776 177.381 47.9896 177.403 47.9964C177.425 48.0032 177.448 48.0046 177.471 48.0003H180.746C180.787 47.9245 180.809 47.8396 180.809 47.7533C180.809 47.667 180.787 47.5821 180.746 47.5063C180.746 47.5063 180.604 47.4827 180.581 47.4827Z" fill="#264FAD"/>
<path d="M138.176 47.4827H135.985C135.419 47.4827 135.443 47.4827 135.443 46.9651V42.048C135.443 42.048 135.443 41.8362 135.443 41.8127C135.357 41.7771 135.265 41.7588 135.172 41.7588C135.079 41.7588 134.987 41.7771 134.901 41.8127V47.8357C134.897 47.8582 134.898 47.8814 134.905 47.9033C134.912 47.9253 134.924 47.9452 134.94 47.9614C134.956 47.9776 134.976 47.9896 134.998 47.9964C135.02 48.0032 135.043 48.0046 135.066 48.0003H138.34C138.382 47.9245 138.403 47.8396 138.403 47.7533C138.403 47.667 138.382 47.5821 138.34 47.5063C138.34 47.5063 138.199 47.4827 138.176 47.4827Z" fill="#264FAD"/>
<path d="M132.756 41.7656C132.568 41.7656 132.544 41.7656 132.52 41.9774V47.5768C132.509 47.6942 132.509 47.8124 132.52 47.9297V48.0474C132.602 48.0823 132.691 48.1003 132.78 48.1003C132.869 48.1003 132.957 48.0823 133.039 48.0474C133.039 48.0474 133.039 48.0474 133.039 47.9297C133.05 47.8596 133.05 47.7881 133.039 47.718V42.1421C133.133 41.7892 133.109 41.7656 132.756 41.7656Z" fill="#264FAD"/>
<path d="M140.531 41.9998C140.531 41.8351 140.531 41.7881 140.295 41.7881C140.059 41.7881 139.871 41.7881 139.871 42.188V47.6934C139.858 47.7792 139.858 47.8664 139.871 47.9522V48.0698C139.953 48.1048 140.041 48.1228 140.13 48.1228C140.219 48.1228 140.307 48.1048 140.389 48.0698C140.389 48.0698 140.389 48.0698 140.389 47.9522C140.401 47.8348 140.401 47.7166 140.389 47.5993V41.9998H140.531Z" fill="#264FAD"/>
<path d="M92.5181 41.7656C92.3767 41.7656 92.3296 41.7656 92.3296 41.9538V47.718C92.3296 48.0709 92.3296 48.0944 92.683 48.0944C92.7392 48.0944 92.7931 48.0721 92.8329 48.0324C92.8727 47.9927 92.895 47.9388 92.895 47.8827V42.1421C92.9892 41.7892 92.9421 41.7656 92.5181 41.7656Z" fill="#264FAD"/>
<path d="M160.385 41.7783C160.339 41.784 160.297 41.8064 160.266 41.8411C160.236 41.8758 160.219 41.9204 160.22 41.9665C160.207 42.0917 160.207 42.2178 160.22 42.3429V46.719L159.914 46.4837C159.042 45.2132 158.17 43.8722 157.322 42.5311L156.922 41.943C156.69 41.7979 156.415 41.7395 156.144 41.7783C156.121 41.9422 156.121 42.1084 156.144 42.2723V47.9189C156.144 48.06 156.144 48.1071 156.356 48.1071C156.568 48.1071 156.804 48.1071 156.804 47.6836V43.3075L157.84 44.8603L159.796 47.9189C159.838 47.9928 159.9 48.0537 159.975 48.0952C160.05 48.1366 160.134 48.157 160.22 48.1541C160.856 48.1306 160.856 48.1306 160.856 47.6836V42.2018C160.856 41.7783 160.856 41.7783 160.385 41.7783Z" fill="#264FAD"/>
</svg>
