<svg width="31" height="30" viewBox="0 0 31 30" fill="none" xmlns="http://www.w3.org/2000/svg">
<path d="M15.6377 0C7.38769 0 0.637695 6.76205 0.637695 15.0904C0.637695 22.6205 6.12769 28.8705 13.2977 30V19.4578H9.48768V15.0904H13.2977V11.762C13.2977 7.98193 15.5327 5.90361 18.9677 5.90361C20.6027 5.90361 22.3127 6.18976 22.3127 6.18976V9.90964H20.4227C18.5627 9.90964 17.9777 11.0693 17.9777 12.259V15.0904H22.1477L21.4727 19.4578H17.9777V30C21.5123 29.4395 24.731 27.6288 27.0526 24.8947C29.3741 22.1606 30.6457 18.6832 30.6377 15.0904C30.6377 6.76205 23.8877 0 15.6377 0Z" fill="#9CA3AF"/>
</svg>
