<svg width="31" height="30" viewBox="0 0 31 30" fill="none" xmlns="http://www.w3.org/2000/svg">
<path d="M9.3377 0H21.9377C26.7377 0 30.6377 3.9 30.6377 8.7V21.3C30.6377 23.6074 29.7211 25.8203 28.0895 27.4518C26.458 29.0834 24.2451 30 21.9377 30H9.3377C4.5377 30 0.637695 26.1 0.637695 21.3V8.7C0.637695 6.39262 1.5543 4.17974 3.18587 2.54817C4.81743 0.916605 7.03031 0 9.3377 0ZM9.03769 3C7.60553 3 6.23202 3.56893 5.21932 4.58162C4.20662 5.59432 3.6377 6.96783 3.6377 8.4V21.6C3.6377 24.585 6.0527 27 9.03769 27H22.2377C23.6699 27 25.0434 26.4311 26.0561 25.4184C27.0688 24.4057 27.6377 23.0322 27.6377 21.6V8.4C27.6377 5.415 25.2227 3 22.2377 3H9.03769ZM23.5127 5.25C24.01 5.25 24.4869 5.44754 24.8385 5.79917C25.1902 6.15081 25.3877 6.62772 25.3877 7.125C25.3877 7.62228 25.1902 8.09919 24.8385 8.45082C24.4869 8.80246 24.01 9 23.5127 9C23.0154 9 22.5385 8.80246 22.1869 8.45082C21.8352 8.09919 21.6377 7.62228 21.6377 7.125C21.6377 6.62772 21.8352 6.15081 22.1869 5.79917C22.5385 5.44754 23.0154 5.25 23.5127 5.25ZM15.6377 7.5C17.6268 7.5 19.5345 8.29018 20.941 9.6967C22.3475 11.1032 23.1377 13.0109 23.1377 15C23.1377 16.9891 22.3475 18.8968 20.941 20.3033C19.5345 21.7098 17.6268 22.5 15.6377 22.5C13.6486 22.5 11.7409 21.7098 10.3344 20.3033C8.92787 18.8968 8.1377 16.9891 8.1377 15C8.1377 13.0109 8.92787 11.1032 10.3344 9.6967C11.7409 8.29018 13.6486 7.5 15.6377 7.5ZM15.6377 10.5C14.4442 10.5 13.2996 10.9741 12.4557 11.818C11.6118 12.6619 11.1377 13.8065 11.1377 15C11.1377 16.1935 11.6118 17.3381 12.4557 18.182C13.2996 19.0259 14.4442 19.5 15.6377 19.5C16.8312 19.5 17.9758 19.0259 18.8197 18.182C19.6636 17.3381 20.1377 16.1935 20.1377 15C20.1377 13.8065 19.6636 12.6619 18.8197 11.818C17.9758 10.9741 16.8312 10.5 15.6377 10.5Z" fill="#9CA3AF"/>
</svg>
