<svg width="31" height="30" viewBox="0 0 31 30" fill="none" xmlns="http://www.w3.org/2000/svg">
<path d="M27.3044 0C28.1884 0 29.0363 0.351189 29.6614 0.976311C30.2865 1.60143 30.6377 2.44928 30.6377 3.33333V26.6667C30.6377 27.5507 30.2865 28.3986 29.6614 29.0237C29.0363 29.6488 28.1884 30 27.3044 30H3.97103C3.08697 30 2.23913 29.6488 1.61401 29.0237C0.988885 28.3986 0.637695 27.5507 0.637695 26.6667V3.33333C0.637695 2.44928 0.988885 1.60143 1.61401 0.976311C2.23913 0.351189 3.08697 0 3.97103 0H27.3044ZM26.471 25.8333V17C26.471 15.559 25.8986 14.177 24.8796 13.1581C23.8607 12.1391 22.4787 11.5667 21.0377 11.5667C19.621 11.5667 17.971 12.4333 17.171 13.7333V11.8833H12.521V25.8333H17.171V17.6167C17.171 16.3333 18.2044 15.2833 19.4877 15.2833C20.1065 15.2833 20.7 15.5292 21.1376 15.9668C21.5752 16.4043 21.821 16.9978 21.821 17.6167V25.8333H26.471ZM7.10436 9.26667C7.84697 9.26667 8.55916 8.97167 9.08426 8.44657C9.60936 7.92146 9.90436 7.20927 9.90436 6.46667C9.90436 4.91667 8.65436 3.65 7.10436 3.65C6.35734 3.65 5.6409 3.94675 5.11268 4.47498C4.58445 5.00321 4.2877 5.71964 4.2877 6.46667C4.2877 8.01667 5.55436 9.26667 7.10436 9.26667ZM9.42103 25.8333V11.8833H4.80436V25.8333H9.42103Z" fill="#9CA3AF"/>
</svg>
