<svg width="33" height="29" viewBox="0 0 33 29" fill="none" xmlns="http://www.w3.org/2000/svg">
<path d="M32.6377 3.41176C31.4599 4.00882 30.1903 4.40118 28.8748 4.58882C30.2209 3.68471 31.261 2.25176 31.7505 0.528823C30.4809 1.38176 29.0736 1.97882 27.5899 2.32C26.3815 0.852941 24.6836 0 22.7562 0C19.1616 0 16.2247 3.27529 16.2247 7.31823C16.2247 7.89823 16.2859 8.46118 16.393 8.99C10.9474 8.68294 6.0985 5.76588 2.87097 1.34765C2.305 2.42235 1.98378 3.68471 1.98378 5.01529C1.98378 7.55706 3.131 9.80882 4.90538 11.0882C3.81934 11.0882 2.80978 10.7471 1.92259 10.2353C1.92259 10.2353 1.92259 10.2353 1.92259 10.2865C1.92259 13.8347 4.18645 16.8029 7.18454 17.4682C6.63387 17.6388 6.05261 17.7241 5.45605 17.7241C5.04305 17.7241 4.63005 17.6729 4.23234 17.5876C5.05835 20.4706 7.45988 22.62 10.3509 22.6712C8.11762 24.65 5.28779 25.81 2.19792 25.81C1.67785 25.81 1.15777 25.7759 0.637695 25.7076C3.54401 27.7888 7.00098 29 10.7027 29C22.7562 29 29.3796 17.8435 29.3796 8.17118C29.3796 7.84706 29.3796 7.54 29.3643 7.21588C30.6492 6.19235 31.7505 4.89588 32.6377 3.41176Z" fill="#9CA3AF"/>
</svg>
