<svg width="31" height="23" viewBox="0 0 31 23" fill="none" xmlns="http://www.w3.org/2000/svg">
<path d="M12.6377 16.3683L20.4227 11.4578L12.6377 6.54731V16.3683ZM29.9777 3.55191C30.1727 4.32122 30.3077 5.35242 30.3977 6.66188C30.5027 7.97135 30.5477 9.10076 30.5477 10.0829L30.6377 11.4578C30.6377 15.0424 30.3977 17.6777 29.9777 19.3637C29.6027 20.8368 28.7327 21.7862 27.3827 22.1954C26.6777 22.4082 25.3877 22.5555 23.4077 22.6537C21.4577 22.7683 19.6727 22.8174 18.0227 22.8174L15.6377 22.9156C9.3527 22.9156 5.4377 22.6537 3.8927 22.1954C2.5427 21.7862 1.6727 20.8368 1.2977 19.3637C1.1027 18.5944 0.967695 17.5632 0.877695 16.2537C0.772695 14.9442 0.727695 13.8148 0.727695 12.8327L0.637695 11.4578C0.637695 7.87314 0.877695 5.23785 1.2977 3.55191C1.6727 2.07877 2.5427 1.12941 3.8927 0.720204C4.5977 0.507416 5.8877 0.360102 7.8677 0.261892C9.8177 0.147314 11.6027 0.0982095 13.2527 0.0982095L15.6377 0C21.9227 0 25.8377 0.261892 27.3827 0.720204C28.7327 1.12941 29.6027 2.07877 29.9777 3.55191Z" fill="#9CA3AF"/>
</svg>
